<?xml version="1.0" encoding="UTF-8" standalone="no"?>
<!DOCTYPE svg PUBLIC "-//W3C//DTD SVG 1.1//EN" "http://www.w3.org/Graphics/SVG/1.1/DTD/svg11.dtd">
<svg width="100%" height="100%" viewBox="0 0 128 128" version="1.1" xmlns="http://www.w3.org/2000/svg" xmlns:xlink="http://www.w3.org/1999/xlink" xml:space="preserve" xmlns:serif="http://www.serif.com/" style="fill-rule:evenodd;clip-rule:evenodd;stroke-linejoin:round;stroke-miterlimit:2;">
    <path d="M60.08,118.82C60.02,119.33 59.57,119.71 59.06,119.67C53.16,119.2 47.25,117.77 41.8,115.21C36.02,112.6 30.84,108.76 26.32,104.35C21.82,99.88 18.11,94.74 15,89.28C11.97,83.77 9.62,77.79 8.39,71.55C7.2,65.32 6.93,58.85 8.1,52.61C8.54,49.88 9.26,47.21 10.14,44.61C10.35,43.99 11.03,43.65 11.65,43.85C12.27,44.05 12.62,44.71 12.44,45.34C11.73,47.85 11.12,50.39 10.82,52.99C9.97,58.93 10.31,65.01 11.59,70.86C12.86,76.72 15.09,82.36 18.04,87.58C23.81,98.06 32.29,107.29 43.03,112.74C48.09,115.34 53.62,116.99 59.25,117.77C59.78,117.84 60.15,118.31 60.08,118.82Z" style="fill:rgb(238,186,75);fill-rule:nonzero;"/>
    <path d="M3.9,69.68C4.42,69.73 4.83,70.11 4.92,70.62C5.31,72.72 5.82,74.79 6.44,76.83C8.68,84.29 12.32,91.27 16.77,97.64C20.96,103.62 25.99,109.06 31.88,113.39C32.51,113.85 32.66,114.71 32.22,115.35C31.79,115.98 30.93,116.17 30.28,115.75C27.23,113.79 24.44,111.43 21.8,108.94C18.88,106.08 16.27,102.93 13.89,99.64C11.64,96.27 9.54,92.79 7.82,89.1C6.15,85.4 4.69,81.58 3.79,77.6C3.25,75.41 2.86,73.17 2.62,70.93C2.57,70.22 3.18,69.61 3.9,69.68Z" style="fill:rgb(238,186,75);fill-rule:nonzero;"/>
    <path d="M121.73,63.28C120.99,63.29 120.38,62.71 120.32,61.97C119.9,56.65 118.77,51.41 116.84,46.44C114.86,41.02 111.98,35.9 108.65,31.15C105.37,26.36 101.47,22.03 96.99,18.44C92.89,15.08 88.28,12.35 83.33,10.39C82.64,10.12 82.27,9.36 82.5,8.65C82.74,7.91 83.55,7.49 84.29,7.75C95.39,11.63 104.88,19.51 111.53,29.14C114.98,34.16 117.96,39.55 119.97,45.32C121.85,50.62 122.97,56.2 123.16,61.82C123.16,62.62 122.52,63.28 121.73,63.28Z" style="fill:rgb(238,186,75);fill-rule:nonzero;"/>
    <path d="M97.68,7.3C97.83,6.64 98.58,6.31 99.16,6.66C102.1,8.48 104.88,10.56 107.45,12.88C113.31,18.11 118.14,24.41 122.06,31.2C123.69,34.13 125.14,37.17 126.37,40.3C126.71,41.17 126.25,42.15 125.38,42.47C124.54,42.78 123.61,42.36 123.27,41.53C122.04,38.58 120.63,35.71 119.02,32.93C117.19,29.65 115.14,26.5 112.9,23.49C110.71,20.44 108.22,17.64 105.62,14.93C103.28,12.54 100.75,10.34 98.05,8.3C97.75,8.06 97.6,7.68 97.68,7.3Z" style="fill:rgb(238,186,75);fill-rule:nonzero;"/>
    <g transform="matrix(0.676148,0.181173,-0.181173,0.676148,32.321616,9.13143)">
        <g id="gold">
            <path id="face" d="M63.6,118.8C35.7,118.8 5.6,101.3 5.6,62.9C5.6,24.5 35.7,7 63.6,7C79.1,7 93.4,12.1 104,21.4C115.5,31.6 121.6,46 121.6,62.9C121.6,79.8 115.5,94.1 104,104.3C93.4,113.6 79,118.8 63.6,118.8Z" style="fill:url(#_Radial1);fill-rule:nonzero;"/>
            <path d="M111.49,29.67C116.82,38.27 119.6,48.51 119.6,59.9C119.6,76.8 113.5,91.1 102,101.3C91.4,110.6 77,115.8 61.6,115.8C43.54,115.8 24.6,108.45 13.42,92.86C24.18,110.52 44.42,118.8 63.6,118.8C79,118.8 93.4,113.6 104,104.3C115.5,94.1 121.6,79.8 121.6,62.9C121.6,50.16 118.13,38.84 111.49,29.67Z" style="fill:rgb(235,143,0);fill-rule:nonzero;"/>
        </g>
        <g id="facial_expressions">
            <path d="M101.7,72.21C100.3,69.69 97.26,68.58 94.56,69.61C85.56,72.41 74.56,73.44 63.48,73.45C52.79,73.49 42.15,72 31.89,69C29.19,67.97 26.15,69.08 24.75,71.6C23.39,74.11 24.38,77.02 25.52,79.53C32,93.65 46.1,102.09 63.4,102.14L63.56,102.14C80.86,102.14 94.5,94.24 100.93,80.14C102.07,77.63 103.06,74.72 101.7,72.21Z" style="fill:white;fill-rule:nonzero;"/>
            <g id="smiling-eyes-grinning-face">
                <g id="eyes">
                    <path d="M49,56.89L48.85,56.69L48.42,56.14L47.89,55.57C47.67,55.32 47.41,55.08 47.16,54.82C46.91,54.56 46.6,54.31 46.32,54.1C46.06,53.9 45.78,53.71 45.48,53.56C45.28,53.45 45.06,53.36 44.83,53.31C44.76,53.3 44.69,53.3 44.62,53.31L44.45,53.31C44.57,53.31 44.18,53.31 44.72,53.31L44.17,53.31C44.02,53.31 44.12,53.31 44.17,53.31L44.25,53.31C44.33,53.31 44.25,53.31 44.25,53.31L44.14,53.31C43.91,53.36 43.69,53.44 43.48,53.56C43.19,53.72 42.9,53.9 42.64,54.1C42.35,54.32 42.07,54.56 41.81,54.82C41.28,55.33 40.81,55.82 40.51,56.21L39.99,56.81L39.76,57.08C38.32,58.69 35.89,58.95 34.14,57.69C33.02,56.91 32.45,55.56 32.67,54.21C32.67,54.21 32.74,53.81 32.93,53.1C33.23,52.09 33.65,51.11 34.18,50.19C35.03,48.69 36.18,47.38 37.56,46.34C38.47,45.64 39.48,45.08 40.56,44.69C40.86,44.57 41.17,44.48 41.48,44.4C41.81,44.3 42.14,44.23 42.48,44.17L43.09,44.08L43.6,44.02L45.45,44.02C45.79,44.02 46.12,44.11 46.45,44.16C47.09,44.27 47.73,44.44 48.34,44.67C49.42,45.06 50.43,45.62 51.34,46.32C52.72,47.36 53.87,48.67 54.72,50.17C55.03,50.69 55.3,51.24 55.52,51.8C55.71,52.25 55.87,52.7 56,53.17C56.07,53.41 56.13,53.65 56.16,53.89L56.16,54.14C56.46,56.18 55.04,58.08 53,58.38C52.95,58.39 52.9,58.39 52.85,58.4C51.39,58.61 49.93,58.03 49,56.89Z" style="fill:rgb(66,43,13);fill-rule:nonzero;"/>
                    <path d="M88.46,56.89L88.3,56.69L87.87,56.14L87.34,55.57C87.12,55.32 86.86,55.08 86.61,54.82C86.36,54.56 86.05,54.31 85.77,54.1C85.51,53.9 85.23,53.71 84.93,53.56C84.73,53.45 84.51,53.36 84.28,53.31C84.21,53.3 84.14,53.3 84.07,53.31L83.9,53.31C84.02,53.31 83.63,53.31 84.17,53.31L83.62,53.31C83.47,53.31 83.57,53.31 83.62,53.31L83.7,53.31C83.78,53.31 83.7,53.31 83.7,53.31L83.59,53.31C83.36,53.36 83.14,53.44 82.93,53.56C82.64,53.71 82.36,53.9 82.1,54.1C81.8,54.32 81.52,54.56 81.26,54.82C80.73,55.33 80.26,55.82 79.96,56.21L79.44,56.81L79.22,57.08C77.77,58.69 75.35,58.95 73.59,57.69C72.47,56.91 71.9,55.56 72.12,54.21C72.12,54.21 72.19,53.81 72.39,53.1C72.69,52.08 73.1,51.1 73.64,50.19C74.49,48.69 75.63,47.38 77.01,46.34C77.92,45.64 78.93,45.08 80.01,44.69C80.31,44.57 80.62,44.48 80.93,44.4C81.26,44.3 81.59,44.23 81.93,44.17L82.55,44.08L83.05,44.02L84.9,44.02C85.24,44.02 85.57,44.11 85.9,44.16C86.55,44.27 87.18,44.44 87.79,44.67C88.87,45.06 89.88,45.62 90.79,46.32C92.17,47.36 93.32,48.67 94.17,50.17C94.48,50.69 94.75,51.24 94.97,51.8C95.16,52.24 95.32,52.69 95.45,53.15C95.52,53.39 95.58,53.63 95.61,53.87L95.61,54.12C95.93,56.16 94.53,58.07 92.49,58.39C92.46,58.39 92.43,58.4 92.4,58.4C90.91,58.65 89.4,58.07 88.46,56.89Z" style="fill:rgb(66,43,13);fill-rule:nonzero;"/>
                </g>
            </g>
        </g>
        <path d="M100.89,75.83C100.8,75.89 94.69,80.46 83.2,83.42L83.2,72.12C81.89,72.32 80.55,72.49 79.2,72.64L79.2,84.32C74.55,85.24 69.82,85.75 65.08,85.85L65.08,73.43L61.08,73.43L61.08,85.85C61.51,85.86 61.51,85.87 61.08,85.87L61.06,85.85C56.43,85.77 51.82,85.33 47.26,84.52L47.26,72.33C45.9,72.15 44.57,71.94 43.26,71.71L43.26,83.68C31.44,80.87 25.5,76.38 25.42,76.31C25.09,76.05 24.68,75.9 24.26,75.89C24.54,77.15 24.96,78.38 25.52,79.55C25.87,80.32 26.25,81.06 26.65,81.8C31.88,84.57 37.47,86.59 43.26,87.8L43.26,97.66C44.56,98.29 45.9,98.86 47.26,99.35L47.26,88.6C51.82,89.36 56.44,89.78 61.06,89.85L61.08,89.87L61.06,89.87L61.06,102.08C61.83,102.08 62.61,102.16 63.4,102.16L65.06,102.16L65.06,89.85L65,89.85L65.06,89.85C69.8,89.76 74.53,89.28 79.2,88.42L79.2,99.63C80.56,99.17 81.9,98.63 83.2,98.02L83.2,87.57C89.3,86.17 95.17,83.88 100.61,80.78C100.71,80.56 100.83,80.36 100.93,80.14C101.66,78.66 102.14,77.07 102.33,75.43C101.82,75.37 101.3,75.52 100.89,75.83Z" style="fill:rgb(179,179,179);fill-rule:nonzero;"/>
        <path d="M102.11,71.63C100.69,69.1 97.64,67.98 94.92,69C84.66,71.99 74.02,73.48 63.34,73.43C52.65,73.48 42.01,71.99 31.75,69C29.06,67.98 26.02,69.08 24.62,71.6C23.26,74.11 24.24,77.02 25.39,79.53C25.9,80.66 26.47,81.77 27.1,82.84C27.1,82.84 25,75.06 26.82,72.8C27.44,71.84 28.48,71.24 29.62,71.18C30.09,71.18 30.55,71.26 31,71.4C41.44,74.47 52.27,76.02 63.16,76L63.51,76C74.4,76.02 85.23,74.47 95.67,71.4C96.12,71.26 96.58,71.18 97.05,71.18C98.19,71.24 99.24,71.84 99.86,72.8C101.71,75.06 99.58,82.87 99.58,82.87C100.2,81.8 100.82,80.7 101.34,79.56C102.48,77.05 103.47,74.15 102.11,71.63Z" style="fill:rgb(235,143,0);fill-rule:nonzero;"/>
    </g>
    <defs>
        <radialGradient id="_Radial1" cx="0" cy="0" r="1" gradientUnits="userSpaceOnUse" gradientTransform="matrix(56.9597,0,0,56.9597,63.6,62.9)"><stop offset="0" style="stop-color:rgb(253,224,48);stop-opacity:1"/><stop offset="0.5" style="stop-color:rgb(253,224,48);stop-opacity:1"/><stop offset="0.92" style="stop-color:rgb(247,192,43);stop-opacity:1"/><stop offset="1" style="stop-color:rgb(244,162,35);stop-opacity:1"/></radialGradient>
    </defs>
</svg>
