<?xml version="1.0" encoding="utf-8"?>
<!-- Energetic face: Noto beaming grin (U+1F601) + shake arcs from Noto shaking face (U+1FAE8)
     Both under Apache License 2.0, Google LLC -->
<svg version="1.1" xmlns="http://www.w3.org/2000/svg" xmlns:xlink="http://www.w3.org/1999/xlink"
     viewBox="0 0 128 128" style="enable-background:new 0 0 128 128;" xml:space="preserve">

  <!-- Shake arcs (behind face) — left/bottom pair -->
  <path style="fill:#EEBA4B;" d="M60.08,118.82
	c-0.06,0.51-0.51,0.89-1.02,0.85c-5.9-0.47-11.81-1.9-17.26-4.46c-5.78-2.61-10.96-6.45-15.48-10.86
	c-4.5-4.47-8.21-9.61-11.32-15.07c-3.03-5.51-5.38-11.49-6.61-17.73C7.2,65.32,6.93,58.85,8.1,52.61c0.44-2.73,1.16-5.4,2.04-8
	c0.21-0.62,0.89-0.96,1.51-0.76h0c0.62,0.2,0.97,0.86,0.79,1.49c-0.71,2.51-1.32,5.05-1.62,7.65c-0.85,5.94-0.51,12.02,0.77,17.87
	c1.27,5.86,3.5,11.5,6.45,16.72c5.77,10.48,14.25,19.71,24.99,25.16c5.06,2.6,10.59,4.25,16.22,5.03
	C59.78,117.84,60.15,118.31,60.08,118.82L60.08,118.82z"/>
<path style="fill:#EEBA4B;" d="M3.9,69.68
	c0.52,0.05,0.93,0.43,1.02,0.94c0.39,2.1,0.9,4.17,1.52,6.21c2.24,7.46,5.88,14.44,10.33,20.81c4.19,5.98,9.22,11.42,15.11,15.75
	c0.63,0.46,0.78,1.32,0.34,1.96l0,0c-0.43,0.63-1.29,0.82-1.94,0.4c-3.05-1.96-5.84-4.32-8.48-6.81c-2.92-2.86-5.53-6.01-7.91-9.3
	c-2.25-3.37-4.35-6.85-6.07-10.54c-1.67-3.7-3.13-7.52-4.03-11.5c-0.54-2.19-0.93-4.43-1.17-6.67C2.57,70.22,3.18,69.61,3.9,69.68
	L3.9,69.68z"/>

  <!-- Shake arcs (behind face) — right/top pair -->
  <path style="fill:#EEBA4B;" d="M121.73,63.28
	c-0.74,0.01-1.35-0.57-1.41-1.31c-0.42-5.32-1.55-10.56-3.48-15.53c-1.98-5.42-4.86-10.54-8.19-15.29
	c-3.28-4.79-7.18-9.12-11.66-12.71c-4.1-3.36-8.71-6.09-13.66-8.05c-0.69-0.27-1.06-1.03-0.83-1.74v0c0.24-0.74,1.05-1.16,1.79-0.9
	c11.1,3.88,20.59,11.76,27.24,21.39c3.45,5.02,6.43,10.41,8.44,16.18c1.88,5.3,3,10.88,3.19,16.5
	C123.16,62.62,122.52,63.28,121.73,63.28L121.73,63.28z"/>
<path style="fill:#EEBA4B;" d="M97.68,7.3
	c0.15-0.66,0.9-0.99,1.48-0.64c2.94,1.82,5.72,3.9,8.29,6.22c5.86,5.23,10.69,11.53,14.61,18.32c1.63,2.93,3.08,5.97,4.31,9.1
	c0.34,0.87-0.12,1.85-0.99,2.17l0,0c-0.84,0.31-1.77-0.11-2.11-0.94c-1.23-2.95-2.64-5.82-4.25-8.6c-1.83-3.28-3.88-6.43-6.12-9.44
	c-2.19-3.05-4.68-5.85-7.28-8.56c-2.34-2.39-4.87-4.59-7.57-6.63C97.75,8.06,97.6,7.68,97.68,7.3L97.68,7.3z"/>

  <!-- Beaming grin face, rotated 15° clockwise and scaled to 70% to reveal arcs -->
  <g transform="translate(64,64) rotate(15) scale(0.70) translate(-64,-64)">
    <!-- Generator: Adobe Illustrator 24.1.2, SVG Export Plug-In . SVG Version: 6.00 Build 0)  -->

<g id="gold">
	
		<radialGradient id="face_1_" cx="63.6" cy="216.9" r="56.9597" gradientTransform="matrix(1 0 0 1 0 -154)" gradientUnits="userSpaceOnUse">
		<stop  offset="0.5" style="stop-color:#FDE030"/>
		<stop  offset="0.92" style="stop-color:#F7C02B"/>
		<stop  offset="1" style="stop-color:#F4A223"/>
	</radialGradient>
	<path id="face" style="fill:url(#face_1_);" d="M63.6,118.8c-27.9,0-58-17.5-58-55.9S35.7,7,63.6,7c15.5,0,29.8,5.1,40.4,14.4
		c11.5,10.2,17.6,24.6,17.6,41.5s-6.1,31.2-17.6,41.4C93.4,113.6,79,118.8,63.6,118.8z"/>
	<path style="fill:#EB8F00;" d="M111.49,29.67c5.33,8.6,8.11,18.84,8.11,30.23c0,16.9-6.1,31.2-17.6,41.4
		c-10.6,9.3-25,14.5-40.4,14.5c-18.06,0-37-7.35-48.18-22.94c10.76,17.66,31,25.94,50.18,25.94c15.4,0,29.8-5.2,40.4-14.5
		c11.5-10.2,17.6-24.5,17.6-41.4C121.6,50.16,118.13,38.84,111.49,29.67z"/>
</g>
<g id="facial_expressions">
	<path style="fill:#FFFFFF;" d="M101.7,72.21c-1.4-2.52-4.44-3.63-7.14-2.6c-9,2.8-20,3.83-31.08,3.84
		C52.79,73.49,42.15,72,31.89,69c-2.7-1.03-5.74,0.08-7.14,2.6c-1.36,2.51-0.37,5.42,0.77,7.93C32,93.65,46.1,102.09,63.4,102.14
		h0.16c17.3,0,30.94-7.9,37.37-22C102.07,77.63,103.06,74.72,101.7,72.21z"/>
	<g id="smiling-eyes-grinning-face">
		<g id="eyes">
			<path style="fill:#422B0D;" d="M49,56.89l-0.15-0.2l-0.43-0.55l-0.53-0.57c-0.22-0.25-0.48-0.49-0.73-0.75s-0.56-0.51-0.84-0.72
				c-0.26-0.2-0.54-0.39-0.84-0.54c-0.2-0.11-0.42-0.2-0.65-0.25c-0.07-0.01-0.14-0.01-0.21,0c0,0-0.06,0-0.09,0h-0.08
				c0.12,0-0.27,0,0.27,0h-0.55c-0.15,0-0.05,0,0,0h0.08c0.08,0,0,0,0,0h-0.11c-0.23,0.05-0.45,0.13-0.66,0.25
				c-0.29,0.16-0.58,0.34-0.84,0.54c-0.29,0.22-0.57,0.46-0.83,0.72c-0.53,0.51-1,1-1.3,1.39l-0.52,0.6l-0.23,0.27
				c-1.44,1.61-3.87,1.87-5.62,0.61c-1.12-0.78-1.69-2.13-1.47-3.48c0,0,0.07-0.4,0.26-1.11c0.3-1.01,0.72-1.99,1.25-2.91
				c0.85-1.5,2-2.81,3.38-3.85c0.91-0.7,1.92-1.26,3-1.65c0.3-0.12,0.61-0.21,0.92-0.29c0.33-0.1,0.66-0.17,1-0.23l0.61-0.09
				l0.51-0.06h0.55h0.79h0.51c0.34,0,0.67,0.09,1,0.14c0.64,0.11,1.28,0.28,1.89,0.51c1.08,0.39,2.09,0.95,3,1.65
				c1.38,1.04,2.53,2.35,3.38,3.85c0.31,0.52,0.58,1.07,0.8,1.63c0.19,0.45,0.35,0.9,0.48,1.37c0.07,0.24,0.13,0.48,0.16,0.72v0.25
				c0.3,2.04-1.12,3.94-3.16,4.24c-0.05,0.01-0.1,0.01-0.15,0.02C51.39,58.61,49.93,58.03,49,56.89z"/>
			<path style="fill:#422B0D;" d="M88.46,56.89l-0.16-0.2l-0.43-0.55l-0.53-0.57c-0.22-0.25-0.48-0.49-0.73-0.75
				s-0.56-0.51-0.84-0.72c-0.26-0.2-0.54-0.39-0.84-0.54c-0.2-0.11-0.42-0.2-0.65-0.25c-0.07-0.01-0.14-0.01-0.21,0
				c0,0-0.06,0-0.09,0H83.9c0.12,0-0.27,0,0.27,0h-0.55c-0.15,0-0.05,0,0,0h0.08c0.08,0,0,0,0,0h-0.11
				c-0.23,0.05-0.45,0.13-0.66,0.25c-0.29,0.15-0.57,0.34-0.83,0.54c-0.3,0.22-0.58,0.46-0.84,0.72c-0.53,0.51-1,1-1.3,1.39
				l-0.52,0.6l-0.22,0.27c-1.45,1.61-3.87,1.87-5.63,0.61c-1.12-0.78-1.69-2.13-1.47-3.48c0,0,0.07-0.4,0.27-1.11
				c0.3-1.02,0.71-2,1.25-2.91c0.85-1.5,1.99-2.81,3.37-3.85c0.91-0.7,1.92-1.26,3-1.65c0.3-0.12,0.61-0.21,0.92-0.29
				c0.33-0.1,0.66-0.17,1-0.23l0.62-0.09l0.5-0.06h0.55h0.79h0.51c0.34,0,0.67,0.09,1,0.14c0.65,0.11,1.28,0.28,1.89,0.51
				c1.08,0.39,2.09,0.95,3,1.65c1.38,1.04,2.53,2.35,3.38,3.85c0.31,0.52,0.58,1.07,0.8,1.63c0.19,0.44,0.35,0.89,0.48,1.35
				c0.07,0.24,0.13,0.48,0.16,0.72v0.25c0.32,2.04-1.08,3.95-3.12,4.27c-0.03,0-0.06,0.01-0.09,0.01
				C90.91,58.65,89.4,58.07,88.46,56.89z"/>
		</g>
	</g>
	<path style="fill:#422B0D;" d="M62.84,74.7"/>
	<path style="fill:#422B0D;" d="M62.84,74.7"/>
	<path style="fill:#422B0D;" d="M63.42,100.89"/>
	<path style="fill:#422B0D;" d="M63.49,74.7"/>
	<path style="fill:#422B0D;" d="M63.49,74.7"/>
	<path style="fill:#422B0D;" d="M63.42,100.89"/>
</g>
<path style="fill:#B3B3B3;" d="M100.89,75.83c-0.09,0.06-6.2,4.63-17.69,7.59v-11.3c-1.31,0.2-2.65,0.37-4,0.52v11.68
	c-4.65,0.92-9.38,1.43-14.12,1.53V73.43H63.5c-0.81,0-1.61,0-2.42,0v12.42c0.43,0.01,0.43,0.02,0,0.02l-0.02-0.02
	c-4.63-0.08-9.24-0.52-13.8-1.33V72.33c-1.36-0.18-2.69-0.39-4-0.62v11.97c-11.82-2.81-17.76-7.3-17.84-7.37
	c-0.33-0.26-0.74-0.41-1.16-0.42c0.28,1.26,0.7,2.49,1.26,3.66c0.35,0.77,0.73,1.51,1.13,2.25c5.23,2.77,10.82,4.79,16.61,6v0.02
	v9.84c1.3,0.63,2.64,1.2,4,1.69V88.6c4.56,0.76,9.18,1.18,13.8,1.25l0.02,0.02c-0.01,0-0.01,0-0.02,0v12.21
	c0.77,0,1.55,0.08,2.34,0.08h0.16c0.51,0,1,0,1.5,0V89.85l-0.06,0l0.06,0c4.74-0.09,9.47-0.57,14.14-1.43v11.21
	c1.36-0.46,2.7-1,4-1.61V87.57c6.1-1.4,11.97-3.69,17.41-6.79c0.1-0.22,0.22-0.42,0.32-0.64c0.73-1.48,1.21-3.07,1.4-4.71
	C101.82,75.37,101.3,75.52,100.89,75.83z"/>
<path style="fill:#EB8F00;" d="M102.11,71.63c-1.42-2.53-4.47-3.65-7.19-2.63c-10.26,2.99-20.9,4.48-31.58,4.43
	C52.65,73.48,42.01,71.99,31.75,69c-2.69-1.02-5.73,0.08-7.13,2.6c-1.36,2.51-0.38,5.42,0.77,7.93c0.51,1.13,1.08,2.24,1.71,3.31
	c0,0-2.1-7.78-0.28-10.04c0.62-0.96,1.66-1.56,2.8-1.62c0.47,0,0.93,0.08,1.38,0.22c10.44,3.07,21.27,4.62,32.16,4.6h0.35
	c10.89,0.02,21.72-1.53,32.16-4.6c0.45-0.14,0.91-0.22,1.38-0.22c1.14,0.06,2.19,0.66,2.81,1.62c1.85,2.26-0.28,10.07-0.28,10.07
	c0.62-1.07,1.24-2.17,1.76-3.31C102.48,77.05,103.47,74.15,102.11,71.63z"/>

  <path style="fill:#EEBA4B;" d="M60.08,118.82
	c-0.06,0.51-0.51,0.89-1.02,0.85c-5.9-0.47-11.81-1.9-17.26-4.46c-5.78-2.61-10.96-6.45-15.48-10.86
	c-4.5-4.47-8.21-9.61-11.32-15.07c-3.03-5.51-5.38-11.49-6.61-17.73C7.2,65.32,6.93,58.85,8.1,52.61c0.44-2.73,1.16-5.4,2.04-8
	c0.21-0.62,0.89-0.96,1.51-0.76h0c0.62,0.2,0.97,0.86,0.79,1.49c-0.71,2.51-1.32,5.05-1.62,7.65c-0.85,5.94-0.51,12.02,0.77,17.87
	c1.27,5.86,3.5,11.5,6.45,16.72c5.77,10.48,14.25,19.71,24.99,25.16c5.06,2.6,10.59,4.25,16.22,5.03
	C59.78,117.84,60.15,118.31,60.08,118.82L60.08,118.82z"/>
  <path style="fill:#EEBA4B;" d="M3.9,69.68
	c0.52,0.05,0.93,0.43,1.02,0.94c0.39,2.1,0.9,4.17,1.52,6.21c2.24,7.46,5.88,14.44,10.33,20.81c4.19,5.98,9.22,11.42,15.11,15.75
	c0.63,0.46,0.78,1.32,0.34,1.96l0,0c-0.43,0.63-1.29,0.82-1.94,0.4c-3.05-1.96-5.84-4.32-8.48-6.81c-2.92-2.86-5.53-6.01-7.91-9.3
	c-2.25-3.37-4.35-6.85-6.07-10.54c-1.67-3.7-3.13-7.52-4.03-11.5c-0.54-2.19-0.93-4.43-1.17-6.67C2.57,70.22,3.18,69.61,3.9,69.68
	L3.9,69.68z"/>
  <path style="fill:#EEBA4B;" d="M121.73,63.28
	c-0.74,0.01-1.35-0.57-1.41-1.31c-0.42-5.32-1.55-10.56-3.48-15.53c-1.98-5.42-4.86-10.54-8.19-15.29
	c-3.28-4.79-7.18-9.12-11.66-12.71c-4.1-3.36-8.71-6.09-13.66-8.05c-0.69-0.27-1.06-1.03-0.83-1.74v0c0.24-0.74,1.05-1.16,1.79-0.9
	c11.1,3.88,20.59,11.76,27.24,21.39c3.45,5.02,6.43,10.41,8.44,16.18c1.88,5.3,3,10.88,3.19,16.5
	C123.16,62.62,122.52,63.28,121.73,63.28L121.73,63.28z"/>
  <path style="fill:#EEBA4B;" d="M97.68,7.3
	c0.15-0.66,0.9-0.99,1.48-0.64c2.94,1.82,5.72,3.9,8.29,6.22c5.86,5.23,10.69,11.53,14.61,18.32c1.63,2.93,3.08,5.97,4.31,9.1
	c0.34,0.87-0.12,1.85-0.99,2.17l0,0c-0.84,0.31-1.77-0.11-2.11-0.94c-1.23-2.95-2.64-5.82-4.25-8.6c-1.83-3.28-3.88-6.43-6.12-9.44
	c-2.19-3.05-4.68-5.85-7.28-8.56c-2.34-2.39-4.87-4.59-7.57-6.63C97.75,8.06,97.6,7.68,97.68,7.3L97.68,7.3z"/>
  </g>

</svg>